<svg width="17" height="18" viewBox="0 0 17 18" fill="none" xmlns="http://www.w3.org/2000/svg">
<path d="M3.58621 14H7.17241V10H3.58621V14ZM8.96552 14H12.5517V10H8.96552V14ZM3.58621 8H7.17241V4H3.58621V8ZM8.96552 8H12.5517V4H8.96552V8ZM1.7931 18C1.3 18 0.877874 17.8042 0.526724 17.4125C0.175575 17.0208 0 16.55 0 16V2C0 1.45 0.175575 0.979167 0.526724 0.5875C0.877874 0.195833 1.3 0 1.7931 0H14.3448C14.8379 0 15.2601 0.195833 15.6112 0.5875C15.9624 0.979167 16.1379 1.45 16.1379 2V16C16.1379 16.55 15.9624 17.0208 15.6112 17.4125C15.2601 17.8042 14.8379 18 14.3448 18H1.7931ZM1.7931 16H14.3448V2H1.7931V16Z" fill="#313A30"/>
</svg>
